M48
; DRILL file {KiCad 7.0.5} date Tue Jun 27 19:09:46 2023
; FORMAT={-:-/ absolute / metric / decimal}
; #@! TF.CreationDate,2023-06-27T19:09:46+08:00
; #@! TF.GenerationSoftware,Kicad,Pcbnew,7.0.5
; #@! TF.FileFunction,MixedPlating,1,2
FMAT,2
METRIC
; #@! TA.AperFunction,Plated,PTH,ViaDrill
T1C0.300
; #@! TA.AperFunction,Plated,PTH,ComponentDrill
T2C0.914
; #@! TA.AperFunction,Plated,PTH,ComponentDrill
T3C1.000
; #@! TA.AperFunction,Plated,PTH,ComponentDrill
T4C1.100
; #@! TA.AperFunction,Plated,PTH,ComponentDrill
T5C1.200
; #@! TA.AperFunction,Plated,PTH,ComponentDrill
T6C1.600
; #@! TA.AperFunction,Plated,PTH,ComponentDrill
T7C1.800
; #@! TA.AperFunction,NonPlated,NPTH,ComponentDrill
T8C1.800
%
G90
G05
T1
X108.77Y-98.392
X108.78Y-79.37
X108.785Y-147.62
X108.79Y-135.95
X109.81Y-94.73
X109.81Y-107.9
X109.82Y-88.883
X113.03Y-128.3
X117.23Y-107.9
X117.27Y-98.39
X117.39Y-79.37
X119.14Y-64.08
X119.14Y-67.9
X120.14Y-102.63
X121.25Y-87.25
X121.25Y-88.43
X121.63Y-138.1
X121.64Y-128.3
X122.34Y-62.87
X125.33Y-98.392
X125.99Y-79.38
X126.0Y-91.13
X126.02Y-88.883
X126.08Y-118.575
X126.14Y-92.93
X126.9Y-96.242
X126.9Y-105.75
X130.04Y-87.22
X130.04Y-90.18
X130.08Y-98.4
X130.08Y-102.63
X130.13Y-79.36
X130.23Y-128.3
X130.23Y-138.1
X134.45Y-111.9
X134.5Y-88.883
X134.57Y-79.375
X134.59Y-98.392
X134.64Y-118.575
X136.35Y-65.11
X136.35Y-67.83
X138.83Y-128.29
X138.83Y-138.1
X138.89Y-88.01
X140.61Y-58.96
X140.61Y-62.25
X142.3Y-107.9
X143.16Y-105.75
X143.19Y-79.375
X143.2Y-98.4
X143.24Y-118.575
X143.46Y-62.88
X144.17Y-77.225
X144.17Y-86.73
X144.18Y-92.25
X144.18Y-96.24
X147.46Y-128.3
X147.47Y-138.1
X147.49Y-147.62
X147.55Y-117.59
X147.7Y-89.35
X147.7Y-91.76
X147.87Y-96.19
X147.87Y-98.78
X147.87Y-101.23
X151.77Y-88.883
X151.78Y-91.19
X151.82Y-77.225
X151.84Y-107.9
X151.88Y-118.575
X152.62Y-79.375
X152.62Y-86.74
X155.17Y-95.25
X155.37Y-107.88
X155.54Y-59.43
X156.0Y-128.29
X156.0Y-138.1
X157.06Y-130.88
X158.29Y-111.9
X159.7Y-59.43
X159.94Y-98.34
X159.94Y-118.575
X160.3Y-79.375
X160.39Y-107.9
X161.14Y-96.24
X161.22Y-130.89
X161.3Y-88.959
X161.31Y-92.02
X161.79Y-64.11
X161.79Y-67.93
X162.52Y-103.45
X163.19Y-91.2
X163.645Y-86.725
X163.73Y-106.87
X163.79Y-135.95
X163.97Y-97.28
X164.28Y-108.91
X164.64Y-138.09
X164.66Y-128.3
X164.89Y-106.87
X165.07Y-62.66
X168.3Y-87.23
X168.3Y-88.57
X168.3Y-94.44
X168.64Y-104.7
X168.94Y-109.44
X169.07Y-118.575
X169.61Y-113.67
X170.84Y-101.31
X170.85Y-99.165
X173.26Y-138.1
X173.32Y-106.86
X173.34Y-110.8
X173.34Y-126.15
X173.34Y-128.3
X174.63Y-62.101
X174.71Y-52.35
X175.11Y-94.05
X175.47Y-130.89
X175.61Y-77.02
X175.79Y-92.85
X176.9Y-77.01
X176.91Y-97.54
X177.435Y-92.84
X177.65Y-118.575
X178.54Y-101.315
X178.56Y-94.93
X178.56Y-99.165
X179.42Y-98.36
X179.42Y-100.03
X179.6Y-106.86
X179.6Y-113.1
X180.06Y-76.89
X180.59Y-121.23
X181.31Y-88.72
X181.33Y-76.89
X181.695Y-114.555
X182.6Y-76.89
X182.6Y-79.51
X182.61Y-82.3
X182.67Y-102.03
X182.68Y-97.974
X182.68Y-100.06
X183.23Y-84.08
X183.82Y-88.72
X183.87Y-76.89
X184.16Y-100.61
X185.18Y-79.48
X185.21Y-86.722
X185.3Y-118.575
X185.32Y-138.1
X186.24Y-135.95
X186.24Y-145.42
X186.415Y-76.31
X186.47Y-77.74
X187.01Y-101.315
X187.51Y-105.35
X187.68Y-76.9
X188.96Y-76.9
X191.18Y-58.18
T2
X168.29Y-76.84
X168.29Y-79.34
X168.29Y-81.84
T3
X106.54Y-52.1
X109.08Y-52.1
X111.62Y-52.1
X114.16Y-52.1
X116.7Y-52.1
X123.812Y-52.1
X126.352Y-52.1
X128.892Y-52.1
X131.433Y-52.1
X133.972Y-52.1
X141.085Y-52.1
X143.625Y-52.1
X146.165Y-52.1
X148.705Y-52.1
X151.245Y-52.1
X158.357Y-52.1
X160.897Y-52.1
X163.438Y-52.1
X165.977Y-52.1
X168.517Y-52.1
X171.058Y-52.1
X178.18Y-52.1
X180.72Y-52.1
X183.26Y-52.1
X185.8Y-52.1
X188.34Y-52.1
T4
X103.061Y-61.6
X103.061Y-66.6
X117.561Y-61.6
X117.561Y-64.1
X117.561Y-66.6
X124.23Y-61.6
X124.23Y-66.6
X138.73Y-61.6
X138.73Y-64.1
X138.73Y-66.6
X145.399Y-61.6
X145.399Y-66.6
X159.899Y-61.6
X159.899Y-64.1
X159.899Y-66.6
T5
X172.278Y-62.101
X172.278Y-64.6
X172.278Y-67.101
X178.508Y-55.871
X181.008Y-55.871
X183.508Y-55.871
T6
X186.8Y-61.12
X186.8Y-68.12
X191.3Y-61.12
X191.3Y-68.12
T7
X176.008Y-58.275
X176.008Y-70.925
X186.008Y-58.275
X186.008Y-70.925
T8
X181.008Y-60.301
X181.008Y-68.901
T7
G00X110.261Y-58.25
M15
G01X109.861Y-58.25
M16
G05
G00X109.861Y-69.95
M15
G01X110.261Y-69.95
M16
G05
G00X131.43Y-58.25
M15
G01X131.03Y-58.25
M16
G05
G00X131.03Y-69.95
M15
G01X131.43Y-69.95
M16
G05
G00X152.599Y-58.25
M15
G01X152.199Y-58.25
M16
G05
G00X152.199Y-69.95
M15
G01X152.599Y-69.95
M16
G05
T0
M30
