%TF.GenerationSoftware,KiCad,Pcbnew,7.0.2*%
%TF.CreationDate,2023-05-25T11:23:19+08:00*%
%TF.ProjectId,UINIO-Keyboard,55494e49-4f2d-44b6-9579-626f6172642e,Version 1.0.0*%
%TF.SameCoordinates,Original*%
%TF.FileFunction,Soldermask,Bot*%
%TF.FilePolarity,Negative*%
%FSLAX46Y46*%
G04 Gerber Fmt 4.6, Leading zero omitted, Abs format (unit mm)*
G04 Created by KiCad (PCBNEW 7.0.2) date 2023-05-25 11:23:19*
%MOMM*%
%LPD*%
G01*
G04 APERTURE LIST*
%ADD10C,1.200000*%
%ADD11C,1.000000*%
%ADD12R,1.700000X1.700000*%
%ADD13O,1.700000X1.700000*%
%ADD14C,1.800000*%
%ADD15C,2.500000*%
%ADD16C,2.200000*%
%ADD17C,1.524000*%
G04 APERTURE END LIST*
D10*
%TO.C,U2*%
X110161000Y-66100000D03*
D11*
X110161000Y-61600000D03*
%TD*%
D12*
%TO.C,J5*%
X141085000Y-52100000D03*
D13*
X143625000Y-52100000D03*
X146165000Y-52100000D03*
X148705000Y-52100000D03*
X151245000Y-52100000D03*
%TD*%
D10*
%TO.C,U3*%
X131330000Y-66100000D03*
D11*
X131330000Y-61600000D03*
%TD*%
D12*
%TO.C,J3*%
X123812500Y-52100000D03*
D13*
X126352500Y-52100000D03*
X128892500Y-52100000D03*
X131432500Y-52100000D03*
X133972500Y-52100000D03*
%TD*%
D10*
%TO.C,U4*%
X152499000Y-66100000D03*
D11*
X152499000Y-61600000D03*
%TD*%
D14*
%TO.C,SW2*%
X181008000Y-68901000D03*
X181008000Y-60301000D03*
X183508000Y-55871000D03*
X181008000Y-55871000D03*
X178508000Y-55871000D03*
X172278000Y-62101000D03*
X172278000Y-64600000D03*
X172278000Y-67101000D03*
D15*
X176008000Y-70925000D03*
X186008000Y-70925000D03*
X186008000Y-58275000D03*
X176008000Y-58275000D03*
D16*
X186800000Y-68120000D03*
X191300000Y-68120000D03*
X186800000Y-61120000D03*
X191300000Y-61120000D03*
%TD*%
D12*
%TO.C,J2*%
X106540000Y-52100000D03*
D13*
X109080000Y-52100000D03*
X111620000Y-52100000D03*
X114160000Y-52100000D03*
X116700000Y-52100000D03*
%TD*%
D17*
%TO.C,SW1*%
X168290000Y-81840000D03*
X168290000Y-79340000D03*
X168290000Y-76840000D03*
%TD*%
D12*
%TO.C,J4*%
X178180000Y-52100000D03*
D13*
X180720000Y-52100000D03*
X183260000Y-52100000D03*
X185800000Y-52100000D03*
X188340000Y-52100000D03*
%TD*%
D12*
%TO.C,J1*%
X158357500Y-52100000D03*
D13*
X160897500Y-52100000D03*
X163437500Y-52100000D03*
X165977500Y-52100000D03*
X168517500Y-52100000D03*
X171057500Y-52100000D03*
%TD*%
M02*
