%TF.GenerationSoftware,KiCad,Pcbnew,8.0.6*%
%TF.CreationDate,2024-11-29T11:38:45+08:00*%
%TF.ProjectId,UINIO-Keyboard,55494e49-4f2d-44b6-9579-626f6172642e,Version 3.2.0*%
%TF.SameCoordinates,PX5ce82e0PY3548230*%
%TF.FileFunction,Soldermask,Bot*%
%TF.FilePolarity,Negative*%
%FSLAX46Y46*%
G04 Gerber Fmt 4.6, Leading zero omitted, Abs format (unit mm)*
G04 Created by KiCad (PCBNEW 8.0.6) date 2024-11-29 11:38:45*
%MOMM*%
%LPD*%
G01*
G04 APERTURE LIST*
%ADD10C,2.000000*%
%ADD11R,3.800000X3.000000*%
%ADD12R,1.700000X1.700000*%
%ADD13O,1.700000X1.700000*%
%ADD14C,1.800000*%
%ADD15C,2.500000*%
%ADD16C,2.200000*%
%ADD17C,1.524000*%
G04 APERTURE END LIST*
D10*
%TO.C,U2*%
X20141000Y-10730000D03*
X20141000Y-8230000D03*
X20141000Y-5730000D03*
X5641000Y-5730000D03*
X5641000Y-10730000D03*
D11*
X12641000Y-14080000D03*
X12641000Y-2380000D03*
%TD*%
D12*
%TO.C,J5*%
X43665000Y3770000D03*
D13*
X46205000Y3770000D03*
X48745000Y3770000D03*
X51285000Y3770000D03*
X53825000Y3770000D03*
%TD*%
D10*
%TO.C,U3*%
X41310000Y-10730000D03*
X41310000Y-8230000D03*
X41310000Y-5730000D03*
X26810000Y-5730000D03*
X26810000Y-10730000D03*
D11*
X33810000Y-14080000D03*
X33810000Y-2380000D03*
%TD*%
D12*
%TO.C,J3*%
X26392500Y3770000D03*
D13*
X28932500Y3770000D03*
X31472500Y3770000D03*
X34012500Y3770000D03*
X36552500Y3770000D03*
%TD*%
D10*
%TO.C,U4*%
X62479000Y-10730000D03*
X62479000Y-8230000D03*
X62479000Y-5730000D03*
X47979000Y-5730000D03*
X47979000Y-10730000D03*
D11*
X54979000Y-14080000D03*
X54979000Y-2380000D03*
%TD*%
D14*
%TO.C,SW2*%
X83588000Y-13031000D03*
X83588000Y-4431000D03*
X86088000Y-1000D03*
X83588000Y-1000D03*
X81088000Y-1000D03*
X74858000Y-6231000D03*
X74858000Y-8730000D03*
X74858000Y-11231000D03*
D15*
X78588000Y-15055000D03*
X88588000Y-15055000D03*
X88588000Y-2405000D03*
X78588000Y-2405000D03*
D16*
X89380000Y-12250000D03*
X93880000Y-12250000D03*
X89380000Y-5250000D03*
X93880000Y-5250000D03*
%TD*%
D12*
%TO.C,J2*%
X9120000Y3770000D03*
D13*
X11660000Y3770000D03*
X14200000Y3770000D03*
X16740000Y3770000D03*
X19280000Y3770000D03*
%TD*%
D17*
%TO.C,SW1*%
X70870000Y-25970000D03*
X70870000Y-23470000D03*
X70870000Y-20970000D03*
%TD*%
D12*
%TO.C,J4*%
X80760000Y3770000D03*
D13*
X83300000Y3770000D03*
X85840000Y3770000D03*
X88380000Y3770000D03*
X90920000Y3770000D03*
%TD*%
D12*
%TO.C,J1*%
X60937500Y3770000D03*
D13*
X63477500Y3770000D03*
X66017500Y3770000D03*
X68557500Y3770000D03*
X71097500Y3770000D03*
X73637500Y3770000D03*
%TD*%
M02*
