M48
; DRILL file {KiCad 8.0.6} date 2024-11-29T11:38:46+0800
; FORMAT={-:-/ absolute / metric / decimal}
; #@! TF.CreationDate,2024-11-29T11:38:46+08:00
; #@! TF.GenerationSoftware,Kicad,Pcbnew,8.0.6
; #@! TF.FileFunction,MixedPlating,1,2
FMAT,2
METRIC
; #@! TA.AperFunction,Plated,PTH,ViaDrill
T1C0.400
; #@! TA.AperFunction,Plated,PTH,ComponentDrill
T2C0.914
; #@! TA.AperFunction,Plated,PTH,ComponentDrill
T3C1.000
; #@! TA.AperFunction,Plated,PTH,ComponentDrill
T4C1.100
; #@! TA.AperFunction,Plated,PTH,ComponentDrill
T5C1.200
; #@! TA.AperFunction,Plated,PTH,ComponentDrill
T6C1.600
; #@! TA.AperFunction,Plated,PTH,ComponentDrill
T7C1.800
; #@! TA.AperFunction,NonPlated,NPTH,ComponentDrill
T8C1.800
%
G90
G05
T1
X11.35Y-42.522
X11.36Y-23.5
X11.365Y-91.75
X11.37Y-80.08
X12.39Y-38.86
X12.39Y-52.03
X12.4Y-33.013
X15.61Y-72.43
X19.81Y-52.03
X19.85Y-42.52
X19.97Y-23.5
X21.72Y-8.21
X21.72Y-12.03
X22.72Y-46.76
X23.83Y-31.38
X23.83Y-32.56
X24.21Y-82.23
X24.22Y-72.43
X24.92Y-7.0
X27.91Y-42.522
X28.57Y-23.51
X28.58Y-35.26
X28.6Y-33.013
X28.66Y-62.705
X28.72Y-37.06
X29.48Y-40.372
X29.48Y-49.88
X32.62Y-31.35
X32.62Y-34.31
X32.66Y-42.53
X32.66Y-46.76
X32.71Y-23.49
X32.81Y-72.43
X32.81Y-82.23
X37.03Y-56.03
X37.08Y-33.013
X37.15Y-23.505
X37.17Y-42.522
X37.22Y-62.705
X38.93Y-9.24
X38.93Y-11.96
X41.41Y-72.42
X41.41Y-82.23
X41.47Y-32.14
X43.19Y-3.09
X43.19Y-6.38
X44.88Y-52.03
X45.74Y-49.88
X45.77Y-23.505
X45.78Y-42.53
X45.82Y-62.705
X46.04Y-7.01
X46.75Y-21.355
X46.75Y-30.86
X46.76Y-36.38
X46.76Y-40.37
X50.04Y-72.43
X50.05Y-82.23
X50.07Y-91.75
X50.13Y-61.72
X50.28Y-33.48
X50.28Y-35.89
X50.45Y-40.32
X50.45Y-42.91
X50.45Y-45.36
X54.35Y-33.013
X54.36Y-35.32
X54.4Y-21.355
X54.42Y-52.03
X54.46Y-62.705
X55.2Y-23.505
X55.2Y-30.87
X57.75Y-39.38
X57.95Y-52.01
X58.12Y-3.56
X58.58Y-72.42
X58.58Y-82.23
X59.64Y-75.01
X60.87Y-56.03
X62.28Y-3.56
X62.52Y-42.47
X62.52Y-62.705
X62.88Y-23.505
X62.97Y-52.03
X63.72Y-40.37
X63.8Y-75.02
X63.88Y-33.089
X63.89Y-36.15
X64.37Y-8.24
X64.37Y-12.06
X65.1Y-47.58
X65.77Y-35.33
X66.225Y-30.855
X66.31Y-51.0
X66.37Y-80.08
X66.55Y-41.41
X66.86Y-53.04
X67.22Y-82.22
X67.24Y-72.43
X67.47Y-51.0
X67.65Y-6.79
X70.88Y-31.36
X70.88Y-32.7
X70.88Y-38.57
X71.22Y-48.83
X71.52Y-53.57
X71.65Y-62.705
X72.19Y-57.8
X73.42Y-45.44
X73.43Y-43.295
X75.84Y-82.23
X75.9Y-50.99
X75.92Y-54.93
X75.92Y-70.28
X75.92Y-72.43
X77.21Y-6.231
X77.29Y3.52
X77.69Y-38.18
X78.05Y-75.02
X78.19Y-21.15
X78.37Y-36.98
X79.48Y-21.14
X79.49Y-41.67
X80.015Y-36.97
X80.23Y-62.705
X81.12Y-45.445
X81.14Y-39.06
X81.14Y-43.295
X82.0Y-42.49
X82.0Y-44.16
X82.18Y-50.99
X82.18Y-57.23
X82.64Y-21.02
X83.17Y-65.36
X83.89Y-32.85
X83.91Y-21.02
X84.275Y-58.685
X85.18Y-21.02
X85.18Y-23.64
X85.19Y-26.43
X85.25Y-46.16
X85.26Y-42.104
X85.26Y-44.19
X86.4Y-32.85
X86.45Y-21.02
X86.455Y-26.43
X86.74Y-44.74
X87.76Y-23.61
X87.79Y-30.852
X87.88Y-62.705
X87.9Y-82.23
X88.82Y-80.08
X88.82Y-89.55
X88.995Y-20.44
X89.05Y-21.87
X89.59Y-45.445
X90.09Y-49.48
X90.26Y-21.03
X91.54Y-21.03
X93.76Y-2.31
T2
X70.87Y-20.97
X70.87Y-23.47
X70.87Y-25.97
T3
X9.12Y3.77
X11.66Y3.77
X14.2Y3.77
X16.74Y3.77
X19.28Y3.77
X26.392Y3.77
X28.932Y3.77
X31.473Y3.77
X34.012Y3.77
X36.552Y3.77
X43.665Y3.77
X46.205Y3.77
X48.745Y3.77
X51.285Y3.77
X53.825Y3.77
X60.938Y3.77
X63.477Y3.77
X66.017Y3.77
X68.557Y3.77
X71.097Y3.77
X73.638Y3.77
X80.76Y3.77
X83.3Y3.77
X85.84Y3.77
X88.38Y3.77
X90.92Y3.77
T4
X5.641Y-5.73
X5.641Y-10.73
X20.141Y-5.73
X20.141Y-8.23
X20.141Y-10.73
X26.81Y-5.73
X26.81Y-10.73
X41.31Y-5.73
X41.31Y-8.23
X41.31Y-10.73
X47.979Y-5.73
X47.979Y-10.73
X62.479Y-5.73
X62.479Y-8.23
X62.479Y-10.73
T5
X74.858Y-6.231
X74.858Y-8.73
X74.858Y-11.231
X81.088Y-0.001
X83.588Y-0.001
X86.088Y-0.001
T6
X89.38Y-5.25
X89.38Y-12.25
X93.88Y-5.25
X93.88Y-12.25
T7
X78.588Y-2.405
X78.588Y-15.055
X88.588Y-2.405
X88.588Y-15.055
T8
X83.588Y-4.431
X83.588Y-13.031
T7
G00X12.841Y-2.38
M15
G01X12.441Y-2.38
M16
G05
G00X12.441Y-14.08
M15
G01X12.841Y-14.08
M16
G05
G00X34.01Y-2.38
M15
G01X33.61Y-2.38
M16
G05
G00X33.61Y-14.08
M15
G01X34.01Y-14.08
M16
G05
G00X55.179Y-2.38
M15
G01X54.779Y-2.38
M16
G05
G00X54.779Y-14.08
M15
G01X55.179Y-14.08
M16
G05
M30
